<?xml version="1.0" encoding="UTF-8" standalone="no"?>
<svg
   class="svg-icon"
   style="width: 1em; height: 1em;vertical-align: middle;fill: currentColor;overflow: hidden;"
   viewBox="0 0 1024 1024"
   version="1.1"
   id="svg4"
   sodipodi:docname="flip-2.svg"
   inkscape:version="1.1.1 (3bf5ae0d25, 2021-09-20)"
   xmlns:inkscape="http://www.inkscape.org/namespaces/inkscape"
   xmlns:sodipodi="http://sodipodi.sourceforge.net/DTD/sodipodi-0.dtd"
   xmlns="http://www.w3.org/2000/svg"
   xmlns:svg="http://www.w3.org/2000/svg">
  <defs
     id="defs8" />
  <sodipodi:namedview
     id="namedview6"
     pagecolor="#ffffff"
     bordercolor="#666666"
     borderopacity="1.0"
     inkscape:pageshadow="2"
     inkscape:pageopacity="0.0"
     inkscape:pagecheckerboard="0"
     showgrid="false"
     inkscape:zoom="0.42626953"
     inkscape:cx="407.01947"
     inkscape:cy="693.22337"
     inkscape:window-width="2560"
     inkscape:window-height="1351"
     inkscape:window-x="1341"
     inkscape:window-y="439"
     inkscape:window-maximized="1"
     inkscape:current-layer="svg4" />
  <path
     d="m 128,640 v 85.33333 h 85.33333 V 640 Z M 640,810.66667 V 896 h 85.33333 V 810.66667 Z M 810.66667,128 H 213.33333 C 166.18667,128 128,166.18667 128,213.33333 V 384 h 85.33333 V 213.33333 H 810.66667 V 384 H 896 V 213.33333 C 896,166.18667 857.81333,128 810.66667,128 Z M 896,810.66667 H 810.66667 V 896 C 857.81333,896 896,857.81333 896,810.66667 Z M 42.666667,469.33333 v 85.33334 H 981.33333 V 469.33333 Z M 298.66667,810.66667 V 896 H 384 V 810.66667 Z M 810.66667,640 v 85.33333 H 896 V 640 Z M 469.33333,810.66667 V 896 h 85.33334 v -85.33333 z m -341.33333,0 C 128,857.81333 166.18667,896 213.33333,896 v -85.33333 z"
     id="path2" />
</svg>
